# xmcd
#
# Track frame offsets: 
#        300
#        13742
#        27157
#        39204
#        51387
#        61897
#        74702
#        89574
#        103832
#        114617
#        127557
#        141762
#        155044
#        168579
#        181299
#        195768
#        207022
#        220878
#        232024
#        248339
#        259742
#        276349
#        289529
#        301733
#
# Disc length: 4317 seconds
#
# Revision: 0
# Processed by: cddbd v1.5.2PL0 Copyright (c) Steve Scherf et al.
# Submitted via: ExactAudioCopy v1.0b1
#
DISCID=5610d918
DTITLE=Freddie King - Blues Guitar Hero
DYEAR=1993
DGENRE=General Blues
TTITLE0=Hide Away
TTITLE1=Lonesome Whistle Blues 
TTITLE2=San-Ho-Zay
TTITLE3=I'm Tore Down
TTITLE4=See See Baby
TTITLE5=Christmas Tears
TTITLE6=You've Got To Love Her With A Feeling
TTITLE7=Have You Ever Loved A Woman
TTITLE8=You Know That You Love Me
TTITLE9=I Love The Woman
TTITLE10=It's Too Bad Things Are Going So Tough
TTITLE11=Sen-Sa-Shun
TTITLE12=If You Believe In What You Do
TTITLE13=Takin' Care Of Business
TTITLE14=The Stumble
TTITLE15=Sittin' On The Boat Dock
TTITLE16=Side Tracked
TTITLE17=What About Love
TTITLE18=Come On
TTITLE19=Just Pickin'
TTITLE20=I'm On My Way To Atlanta
TTITLE21=In The Open
TTITLE22=(The Welfare) Turns Its Back On You
TTITLE23=She Put The Whammy On Me
EXTD=
EXTT0=
EXTT1=
EXTT2=
EXTT3=
EXTT4=
EXTT5=
EXTT6=
EXTT7=
EXTT8=
EXTT9=
EXTT10=
EXTT11=
EXTT12=
EXTT13=
EXTT14=
EXTT15=
EXTT16=
EXTT17=
EXTT18=
EXTT19=
EXTT20=
EXTT21=
EXTT22=
EXTT23=
PLAYORDER=
